#Comment line ignore any data following # character 
#Hierarchical Translation and Rotation (.htr) file 
[Header]	
#Header keywords are followed by a single value 
FileType HTR		#Single word string
DataType HTRS		#Translation followed by rotation and scale data
FileVersion 1		#integer
NumSegments 25		#integer
NumFrames 4		#integer
DataFrameRate 30		#integer, data frame rate in this file
EulerRotationOrder ZYX
CalibrationUnits mm
RotationUnits Degrees
GlobalAxisofGravity Y
BoneLengthAxis Y
ScaleFactor 1.00
[SegmentNames&Hierarchy]
#CHILD	PARENT
BN_Tick_Root GLOBAL
BN_Torso BN_Tick_Root
BN_L_Leg_Front01 BN_Torso
BN_L_Leg_Rear01 BN_Torso
BN_MetalTop BN_Torso
BN_Neck BN_Torso
BN_R_Leg_Front01 BN_Torso
BN_R_Leg_Rear01 BN_Torso
BN_Sack BN_Torso
BN_L_Leg_Front02 BN_L_Leg_Front01
BN_L_Leg_Front03 BN_L_Leg_Front02
BN_L_Leg_Rear02 BN_L_Leg_Rear01
BN_L_Leg_Rear03 BN_L_Leg_Rear02
BN_Head BN_Neck
BN_Needle BN_Head
BN_R_Leg_Front02 BN_R_Leg_Front01
BN_R_Leg_Front03 BN_R_Leg_Front02
BN_R_Leg_Rear02 BN_R_Leg_Rear01
BN_R_Leg_Rear03 BN_R_Leg_Rear02
BN_SackDef01 BN_Sack
BN_SackDef02 BN_Sack
BN_SackDef03 BN_Sack
BN_SackDef04 BN_Sack
BN_SackDef05 BN_Sack
BN_SackDef06 BN_Sack
[BasePosition]
#SegmentName Tx, Ty, Tz, Rx, Ry, Rz, BoneLength
BN_Tick_Root 0.000000 0.000000 0.000000 -90.000000 0.000000 0.000000 10.000000 
BN_Torso 0.000000 0.000000 0.000000 0.000000 0.000000 0.000000 10.000000 
BN_L_Leg_Front01 0.000000 0.000000 0.000000 0.000000 0.000000 0.000000 10.000000 
BN_L_Leg_Rear01 0.000000 0.000000 0.000000 0.000000 0.000000 0.000000 10.000000 
BN_MetalTop 0.000000 0.000000 0.000000 0.000000 0.000000 0.000000 10.000000 
BN_Neck 0.000000 0.000000 0.000000 0.000000 0.000000 0.000000 10.000000 
BN_R_Leg_Front01 0.000000 0.000000 0.000000 0.000000 0.000000 0.000000 10.000000 
BN_R_Leg_Rear01 0.000000 0.000000 0.000000 0.000000 0.000000 0.000000 10.000000 
BN_Sack 0.000000 0.000000 0.000000 0.000000 0.000000 0.000000 10.000000 
BN_L_Leg_Front02 0.000000 0.000000 0.000000 0.000000 0.000000 0.000000 10.000000 
BN_L_Leg_Front03 0.000000 0.000000 0.000000 0.000000 0.000000 0.000000 10.000000 
BN_L_Leg_Rear02 0.000000 0.000000 0.000000 0.000000 0.000000 0.000000 10.000000 
BN_L_Leg_Rear03 0.000000 0.000000 0.000000 0.000000 0.000000 0.000000 10.000000 
BN_Head 0.000000 0.000000 0.000000 0.000000 0.000000 0.000000 10.000000 
BN_Needle 0.000000 0.000000 0.000000 0.000000 0.000000 0.000000 10.000000 
BN_R_Leg_Front02 0.000000 0.000000 0.000000 0.000000 0.000000 0.000000 10.000000 
BN_R_Leg_Front03 0.000000 0.000000 0.000000 0.000000 0.000000 0.000000 10.000000 
BN_R_Leg_Rear02 0.000000 0.000000 0.000000 0.000000 0.000000 0.000000 10.000000 
BN_R_Leg_Rear03 0.000000 0.000000 0.000000 0.000000 0.000000 0.000000 10.000000 
BN_SackDef01 0.000000 0.000000 0.000000 0.000000 0.000000 0.000000 10.000000 
BN_SackDef02 0.000000 0.000000 0.000000 0.000000 0.000000 0.000000 10.000000 
BN_SackDef03 0.000000 0.000000 0.000000 0.000000 0.000000 0.000000 10.000000 
BN_SackDef04 0.000000 0.000000 0.000000 0.000000 0.000000 0.000000 10.000000 
BN_SackDef05 0.000000 0.000000 0.000000 0.000000 0.000000 0.000000 10.000000 
BN_SackDef06 0.000000 0.000000 0.000000 0.000000 0.000000 0.000000 10.000000 
#Beginning of Data. Separated by tabs
#Fr	Tx	Ty	Tz	Rx	Ry	Rz	SF
[BN_Tick_Root]
53 0.000000 0.000000 0.000000 0.000000 0.000000 -0.000020 0.000000
54 0.000000 0.000000 0.000000 0.000000 0.000000 -0.000020 0.000000
55 0.000000 0.000000 0.000000 0.000000 0.000000 -0.000020 0.000000
56 0.000000 0.000000 0.000000 0.000000 0.000000 -0.000020 0.000000
[BN_Torso]
53 11.881371 29.032595 205.654877 -12.189821 -1.494972 -7.447518 208.033630
54 14.809943 31.810827 203.506729 -11.502529 -1.287249 -7.494874 206.509689
55 14.809943 31.810827 208.294327 -15.205403 -1.339863 -7.566234 211.229248
56 14.809943 31.810827 213.081772 -18.908232 -1.396999 -7.634049 215.951630
[BN_L_Leg_Front01]
53 -68.477791 10.734189 -26.804373 -64.644188 55.051884 148.747452 74.316254
54 -68.477791 10.734189 -26.804373 -64.136513 55.492157 150.722992 74.316254
55 -68.477791 10.734189 -26.804373 -69.425667 53.946667 145.854004 74.316254
56 -68.477791 10.734189 -26.804373 -74.282570 52.158615 141.421234 74.316254
[BN_L_Leg_Rear01]
53 -72.133743 -73.994843 -18.268616 46.876431 61.153793 -135.507294 104.939293
54 -72.133743 -73.994843 -18.268616 48.745018 59.991779 -134.012939 104.939293
55 -72.133743 -73.994843 -18.268616 41.848701 63.680565 -140.118332 104.939293
56 -72.133743 -73.994843 -18.268616 33.025391 66.943382 -148.161942 104.939293
[BN_MetalTop]
53 0.000008 13.737477 26.403606 92.251366 -17.585709 -97.417938 29.763546
54 0.000008 13.737477 26.403606 92.251366 -17.585709 -97.417938 29.763546
55 0.000008 13.737477 26.403606 92.251366 -17.585709 -97.417938 29.763546
56 0.000008 13.737477 26.403606 92.251366 -17.585709 -97.417938 29.763546
[BN_Neck]
53 0.000014 95.233284 10.002091 -89.999672 -65.297531 89.999657 95.757088
54 0.000014 95.233284 10.002091 -89.999672 -65.297531 89.999657 95.757088
55 0.000014 95.233284 10.002091 -89.999672 -65.297531 89.999657 95.757088
56 0.000014 95.233284 10.002091 -89.999672 -65.297531 89.999657 95.757088
[BN_R_Leg_Front01]
53 68.477768 10.734107 -26.804314 61.909824 45.335457 56.360920 74.316193
54 68.477768 10.734107 -26.804314 61.061897 45.944862 55.888031 74.316193
55 68.477768 10.734107 -26.804314 63.797287 43.302719 58.223923 74.316193
56 68.477768 10.734107 -26.804314 66.276222 40.587803 60.295231 74.316193
[BN_R_Leg_Rear01]
53 72.133751 -73.994873 -18.268644 14.310160 75.835892 47.691513 104.939331
54 72.133751 -73.994873 -18.268644 11.915276 76.562668 42.799976 104.939331
55 72.133751 -73.994873 -18.268644 25.061012 73.760201 55.903751 104.939331
56 72.133751 -73.994873 -18.268644 33.790630 70.423897 64.476906 104.939331
[BN_Sack]
53 -0.000000 -78.024918 33.657791 91.379875 -11.014523 -97.199577 84.974907
54 -0.000000 -78.024918 33.657791 91.379875 -11.014523 -97.199577 84.974907
55 -0.000000 -78.024918 33.657791 91.379875 -11.014524 -97.199577 84.974907
56 -0.000000 -78.024918 33.657791 91.379875 -11.014523 -97.199577 84.974907
[BN_L_Leg_Front02]
53 142.805023 -0.000015 -0.000104 -0.112140 0.862813 -146.731430 142.805023
54 142.805023 -0.000015 -0.000104 -0.119899 0.877480 -147.679993 142.805023
55 142.805023 -0.000015 -0.000104 -0.091391 0.847883 -144.626999 142.805023
56 142.805023 -0.000015 -0.000104 -0.064501 0.816811 -141.574188 142.805023
[BN_L_Leg_Front03]
53 124.143021 -0.000045 0.000007 0.354394 -0.250801 146.228561 124.143021
54 124.143021 -0.000045 0.000007 0.354049 -0.247154 146.814774 124.143021
55 124.143021 -0.000045 0.000007 0.352873 -0.258833 145.051758 124.143021
56 124.143021 -0.000045 0.000007 0.352057 -0.270541 143.288788 124.143021
[BN_L_Leg_Rear02]
53 139.939041 0.000075 -0.000022 0.072732 -0.228584 96.860680 139.939041
54 139.939041 0.000075 -0.000022 0.073621 -0.228293 96.414299 139.939041
55 139.939041 0.000075 -0.000022 0.081798 -0.223455 94.127449 139.939041
56 139.939041 0.000075 -0.000022 0.089776 -0.218294 91.840645 139.939041
[BN_L_Leg_Rear03]
53 142.839615 0.000179 -0.000060 0.000524 -0.002288 -115.779518 142.839615
54 142.839615 0.000179 -0.000060 0.000514 -0.002290 -115.284508 142.839615
55 142.839615 0.000179 -0.000060 0.000463 -0.002301 -112.737076 142.839615
56 142.839615 0.000179 -0.000060 0.000408 -0.002312 -110.006622 142.839615
[BN_Head]
53 57.062447 -0.000030 0.000000 -8.007528 13.990424 2.685856 57.062447
54 57.062447 -0.000030 0.000000 -8.108102 13.802216 3.349538 57.062447
55 57.062447 -0.000030 0.000000 -8.015269 13.794207 -0.334980 57.062447
56 57.062447 -0.000030 0.000000 -7.922082 13.792027 -4.019362 57.062447
[BN_Needle]
53 33.915161 69.677544 -0.000060 0.000003 0.000030 87.896805 77.493217
54 33.915161 69.677544 -0.000060 0.000003 0.000030 87.896805 77.493217
55 33.915161 69.677544 -0.000060 0.000003 0.000030 87.896805 77.493217
56 33.915161 69.677544 -0.000060 0.000003 0.000030 87.896805 77.493217
[BN_R_Leg_Front02]
53 142.804947 -0.000060 0.000060 -0.083662 0.588425 120.505714 142.804947
54 142.804947 -0.000060 0.000060 -0.069453 0.618788 123.023590 142.804947
55 142.804947 -0.000060 0.000060 -0.081623 0.591929 120.721748 142.804947
56 142.804947 -0.000060 0.000060 -0.092704 0.564604 118.419960 142.804947
[BN_R_Leg_Front03]
53 124.143005 -0.000060 -0.000156 -0.351409 -0.351064 -128.224106 124.143005
54 124.143005 -0.000060 -0.000156 -0.351880 -0.340342 -130.327805 124.143005
55 124.143005 -0.000060 -0.000156 -0.351789 -0.351004 -128.421677 124.143005
56 124.143005 -0.000060 -0.000156 -0.352054 -0.361662 -126.515572 124.143005
[BN_R_Leg_Rear02]
53 139.939011 -0.000149 0.000015 0.083066 -0.235385 -144.982986 139.939011
54 139.939011 -0.000149 0.000015 0.091729 -0.239577 -147.571915 139.939011
55 139.939011 -0.000149 0.000015 0.073225 -0.254148 -140.404587 139.939011
56 139.939011 -0.000149 0.000015 0.052485 -0.260450 -134.024506 139.939011
[BN_R_Leg_Rear03]
53 142.839417 0.000075 0.000119 0.002004 -0.001223 152.819977 142.839417
54 142.839417 0.000075 0.000119 0.001990 -0.001245 154.080017 142.839417
55 142.839417 0.000075 0.000119 0.002028 -0.001184 150.527817 142.839417
56 142.839417 0.000075 0.000119 0.002063 -0.001120 146.975708 142.839417
[BN_SackDef01]
53 249.782272 -3.760844 42.949425 -128.408218 -44.374973 -11.740845 253.475800
54 249.782272 -3.760844 42.949425 -128.408218 -44.374973 -11.740845 253.475800
55 249.782272 -3.760844 42.949425 -128.408218 -44.374973 -11.740845 253.475800
56 249.782272 -3.760844 42.949425 -128.408218 -44.374973 -11.740845 253.475800
[BN_SackDef02]
53 138.789795 -62.131748 45.674385 32.077126 -27.375721 -88.781525 158.773758
54 138.789795 -62.131748 45.674385 32.077126 -27.375721 -88.781525 158.773758
55 138.789795 -62.131748 45.674385 32.077126 -27.375721 -88.781525 158.773758
56 138.789795 -62.131748 45.674385 32.077126 -27.375721 -88.781525 158.773758
[BN_SackDef03]
53 249.782272 -3.760785 -42.949661 18.144459 44.375008 -11.740894 253.475845
54 249.782272 -3.760785 -42.949661 18.144459 44.375008 -11.740894 253.475845
55 249.782272 -3.760785 -42.949661 18.144459 44.375008 -11.740894 253.475845
56 249.782272 -3.760785 -42.949661 18.144459 44.375008 -11.740894 253.475845
[BN_SackDef04]
53 138.789780 -62.131645 -45.674473 146.059982 27.375723 -88.781555 158.773743
54 138.789780 -62.131645 -45.674473 146.059982 27.375723 -88.781555 158.773743
55 138.789780 -62.131645 -45.674473 146.059982 27.375723 -88.781555 158.773743
56 138.789780 -62.131645 -45.674473 146.059982 27.375723 -88.781555 158.773743
[BN_SackDef05]
53 118.790161 46.167137 -63.831196 0.155741 51.314110 90.605110 142.537460
54 118.790161 46.167137 -63.831196 0.155741 51.314110 90.605110 142.537460
55 118.790161 46.167137 -63.831196 0.155741 51.314110 90.605110 142.537460
56 118.790161 46.167137 -63.831196 0.155741 51.314110 90.605110 142.537460
[BN_SackDef06]
53 118.790207 46.167194 63.831219 152.058487 -51.314072 90.605019 142.537537
54 118.790207 46.167194 63.831219 152.058487 -51.314072 90.605019 142.537537
55 118.790207 46.167194 63.831219 152.058487 -51.314072 90.605019 142.537537
56 118.790207 46.167194 63.831219 152.058487 -51.314072 90.605019 142.537537
